<mxfile host="app.diagrams.net" agent="Mozilla/5.0 (Windows NT 10.0; Win64; x64) AppleWebKit/537.36 (KHTML, like Gecko) Chrome/131.0.0.0 Safari/537.36" version="24.8.6">
  <diagram name="Page-1" id="mzMX9cV4cB81hAPB8i3j">
    <mxGraphModel dx="2416" dy="560" grid="1" gridSize="10" guides="1" tooltips="1" connect="1" arrows="1" fold="1" page="1" pageScale="1" pageWidth="850" pageHeight="1100" math="0" shadow="0">
      <root>
        <mxCell id="0" />
        <mxCell id="1" parent="0" />
        <mxCell id="Dds-Nu4U3g00oNfWe3dt-3" value="" style="edgeStyle=orthogonalEdgeStyle;rounded=0;orthogonalLoop=1;jettySize=auto;html=1;" edge="1" parent="1" target="Dds-Nu4U3g00oNfWe3dt-2">
          <mxGeometry relative="1" as="geometry">
            <mxPoint x="600" y="110" as="sourcePoint" />
          </mxGeometry>
        </mxCell>
        <mxCell id="Dds-Nu4U3g00oNfWe3dt-5" value="" style="edgeStyle=orthogonalEdgeStyle;rounded=0;orthogonalLoop=1;jettySize=auto;html=1;" edge="1" parent="1" source="Dds-Nu4U3g00oNfWe3dt-2" target="Dds-Nu4U3g00oNfWe3dt-4">
          <mxGeometry relative="1" as="geometry" />
        </mxCell>
        <mxCell id="Dds-Nu4U3g00oNfWe3dt-8" value="" style="edgeStyle=orthogonalEdgeStyle;rounded=0;orthogonalLoop=1;jettySize=auto;html=1;" edge="1" parent="1" source="Dds-Nu4U3g00oNfWe3dt-2" target="Dds-Nu4U3g00oNfWe3dt-7">
          <mxGeometry relative="1" as="geometry" />
        </mxCell>
        <mxCell id="Dds-Nu4U3g00oNfWe3dt-2" value="TOKEN EXIST" style="rounded=0;whiteSpace=wrap;html=1;" vertex="1" parent="1">
          <mxGeometry x="540" y="200" width="120" height="60" as="geometry" />
        </mxCell>
        <mxCell id="Dds-Nu4U3g00oNfWe3dt-11" value="" style="edgeStyle=orthogonalEdgeStyle;rounded=0;orthogonalLoop=1;jettySize=auto;html=1;" edge="1" parent="1" source="Dds-Nu4U3g00oNfWe3dt-4" target="Dds-Nu4U3g00oNfWe3dt-10">
          <mxGeometry relative="1" as="geometry" />
        </mxCell>
        <mxCell id="Dds-Nu4U3g00oNfWe3dt-4" value="SIGN IN" style="rounded=0;whiteSpace=wrap;html=1;" vertex="1" parent="1">
          <mxGeometry x="150" y="200" width="120" height="60" as="geometry" />
        </mxCell>
        <mxCell id="Dds-Nu4U3g00oNfWe3dt-6" value="NO" style="text;html=1;align=center;verticalAlign=middle;resizable=0;points=[];autosize=1;strokeColor=none;fillColor=none;" vertex="1" parent="1">
          <mxGeometry x="280" y="198" width="40" height="30" as="geometry" />
        </mxCell>
        <mxCell id="Dds-Nu4U3g00oNfWe3dt-37" style="edgeStyle=orthogonalEdgeStyle;rounded=0;orthogonalLoop=1;jettySize=auto;html=1;entryX=1;entryY=0.75;entryDx=0;entryDy=0;" edge="1" parent="1" source="Dds-Nu4U3g00oNfWe3dt-7" target="Dds-Nu4U3g00oNfWe3dt-28">
          <mxGeometry relative="1" as="geometry" />
        </mxCell>
        <mxCell id="Dds-Nu4U3g00oNfWe3dt-7" value="TOKEN EXIST" style="rounded=0;whiteSpace=wrap;html=1;" vertex="1" parent="1">
          <mxGeometry x="860" y="278" width="120" height="60" as="geometry" />
        </mxCell>
        <mxCell id="Dds-Nu4U3g00oNfWe3dt-9" value="YES" style="text;html=1;align=center;verticalAlign=middle;resizable=0;points=[];autosize=1;strokeColor=none;fillColor=none;" vertex="1" parent="1">
          <mxGeometry x="475" y="198" width="50" height="30" as="geometry" />
        </mxCell>
        <mxCell id="Dds-Nu4U3g00oNfWe3dt-15" value="" style="edgeStyle=orthogonalEdgeStyle;rounded=0;orthogonalLoop=1;jettySize=auto;html=1;" edge="1" parent="1" source="Dds-Nu4U3g00oNfWe3dt-10" target="Dds-Nu4U3g00oNfWe3dt-14">
          <mxGeometry relative="1" as="geometry" />
        </mxCell>
        <mxCell id="Dds-Nu4U3g00oNfWe3dt-10" value="EMAIL EXIST" style="rounded=0;whiteSpace=wrap;html=1;" vertex="1" parent="1">
          <mxGeometry x="150" y="340" width="120" height="60" as="geometry" />
        </mxCell>
        <mxCell id="Dds-Nu4U3g00oNfWe3dt-21" value="" style="edgeStyle=orthogonalEdgeStyle;rounded=0;orthogonalLoop=1;jettySize=auto;html=1;" edge="1" parent="1" source="Dds-Nu4U3g00oNfWe3dt-14" target="Dds-Nu4U3g00oNfWe3dt-20">
          <mxGeometry relative="1" as="geometry" />
        </mxCell>
        <mxCell id="Dds-Nu4U3g00oNfWe3dt-14" value="SIGN UP ACCOUNT" style="rounded=0;whiteSpace=wrap;html=1;" vertex="1" parent="1">
          <mxGeometry x="-50" y="340" width="120" height="60" as="geometry" />
        </mxCell>
        <mxCell id="Dds-Nu4U3g00oNfWe3dt-16" value="NO" style="text;html=1;align=center;verticalAlign=middle;resizable=0;points=[];autosize=1;strokeColor=none;fillColor=none;" vertex="1" parent="1">
          <mxGeometry x="80" y="338" width="40" height="30" as="geometry" />
        </mxCell>
        <mxCell id="Dds-Nu4U3g00oNfWe3dt-19" value="" style="edgeStyle=orthogonalEdgeStyle;rounded=0;orthogonalLoop=1;jettySize=auto;html=1;" edge="1" parent="1" source="Dds-Nu4U3g00oNfWe3dt-17" target="Dds-Nu4U3g00oNfWe3dt-18">
          <mxGeometry relative="1" as="geometry" />
        </mxCell>
        <mxCell id="Dds-Nu4U3g00oNfWe3dt-17" value="YES" style="text;html=1;align=center;verticalAlign=middle;resizable=0;points=[];autosize=1;strokeColor=none;fillColor=none;" vertex="1" parent="1">
          <mxGeometry x="265" y="338" width="50" height="30" as="geometry" />
        </mxCell>
        <mxCell id="Dds-Nu4U3g00oNfWe3dt-36" style="edgeStyle=orthogonalEdgeStyle;rounded=0;orthogonalLoop=1;jettySize=auto;html=1;entryX=1;entryY=0.5;entryDx=0;entryDy=0;" edge="1" parent="1" source="Dds-Nu4U3g00oNfWe3dt-18" target="Dds-Nu4U3g00oNfWe3dt-28">
          <mxGeometry relative="1" as="geometry" />
        </mxCell>
        <mxCell id="Dds-Nu4U3g00oNfWe3dt-18" value="SIGN IN THE ACCOUNT" style="whiteSpace=wrap;html=1;" vertex="1" parent="1">
          <mxGeometry x="320" y="423" width="120" height="57" as="geometry" />
        </mxCell>
        <mxCell id="Dds-Nu4U3g00oNfWe3dt-23" value="" style="edgeStyle=orthogonalEdgeStyle;rounded=0;orthogonalLoop=1;jettySize=auto;html=1;" edge="1" parent="1" source="Dds-Nu4U3g00oNfWe3dt-20" target="Dds-Nu4U3g00oNfWe3dt-22">
          <mxGeometry relative="1" as="geometry" />
        </mxCell>
        <mxCell id="Dds-Nu4U3g00oNfWe3dt-20" value="GENERATE TOKEN FOR 24 HOURS" style="rounded=0;whiteSpace=wrap;html=1;" vertex="1" parent="1">
          <mxGeometry x="-50" y="480" width="120" height="60" as="geometry" />
        </mxCell>
        <mxCell id="Dds-Nu4U3g00oNfWe3dt-25" value="" style="edgeStyle=orthogonalEdgeStyle;rounded=0;orthogonalLoop=1;jettySize=auto;html=1;" edge="1" parent="1" source="Dds-Nu4U3g00oNfWe3dt-22" target="Dds-Nu4U3g00oNfWe3dt-24">
          <mxGeometry relative="1" as="geometry" />
        </mxCell>
        <mxCell id="Dds-Nu4U3g00oNfWe3dt-22" value="USER WILL SELECT THE PLAN" style="rounded=0;whiteSpace=wrap;html=1;" vertex="1" parent="1">
          <mxGeometry x="-50" y="620" width="120" height="60" as="geometry" />
        </mxCell>
        <mxCell id="Dds-Nu4U3g00oNfWe3dt-29" value="" style="edgeStyle=orthogonalEdgeStyle;rounded=0;orthogonalLoop=1;jettySize=auto;html=1;" edge="1" parent="1" source="Dds-Nu4U3g00oNfWe3dt-24" target="Dds-Nu4U3g00oNfWe3dt-28">
          <mxGeometry relative="1" as="geometry" />
        </mxCell>
        <mxCell id="Dds-Nu4U3g00oNfWe3dt-24" value="GENERATE THE LICENCE AND UPDATE ON THE DATABASE" style="rounded=0;whiteSpace=wrap;html=1;" vertex="1" parent="1">
          <mxGeometry x="-50" y="760" width="120" height="60" as="geometry" />
        </mxCell>
        <mxCell id="Dds-Nu4U3g00oNfWe3dt-39" value="" style="edgeStyle=orthogonalEdgeStyle;rounded=0;orthogonalLoop=1;jettySize=auto;html=1;" edge="1" parent="1" source="Dds-Nu4U3g00oNfWe3dt-28">
          <mxGeometry relative="1" as="geometry">
            <mxPoint x="10" y="1040" as="targetPoint" />
          </mxGeometry>
        </mxCell>
        <mxCell id="Dds-Nu4U3g00oNfWe3dt-40" value="YES" style="edgeLabel;html=1;align=center;verticalAlign=middle;resizable=0;points=[];" vertex="1" connectable="0" parent="Dds-Nu4U3g00oNfWe3dt-39">
          <mxGeometry x="-0.3624" y="8" relative="1" as="geometry">
            <mxPoint as="offset" />
          </mxGeometry>
        </mxCell>
        <mxCell id="Dds-Nu4U3g00oNfWe3dt-43" value="" style="edgeStyle=orthogonalEdgeStyle;rounded=0;orthogonalLoop=1;jettySize=auto;html=1;" edge="1" parent="1" source="Dds-Nu4U3g00oNfWe3dt-28" target="Dds-Nu4U3g00oNfWe3dt-42">
          <mxGeometry relative="1" as="geometry" />
        </mxCell>
        <mxCell id="Dds-Nu4U3g00oNfWe3dt-28" value="USER WILL AUTHENICATE ON ROUTER JUST." style="whiteSpace=wrap;html=1;rounded=0;" vertex="1" parent="1">
          <mxGeometry x="-50" y="900" width="120" height="60" as="geometry" />
        </mxCell>
        <mxCell id="Dds-Nu4U3g00oNfWe3dt-30" value="START" style="ellipse;whiteSpace=wrap;html=1;" vertex="1" parent="1">
          <mxGeometry x="540" y="40" width="120" height="80" as="geometry" />
        </mxCell>
        <mxCell id="Dds-Nu4U3g00oNfWe3dt-32" value="" style="edgeStyle=orthogonalEdgeStyle;rounded=0;orthogonalLoop=1;jettySize=auto;html=1;" edge="1" parent="1" source="Dds-Nu4U3g00oNfWe3dt-31" target="Dds-Nu4U3g00oNfWe3dt-28">
          <mxGeometry relative="1" as="geometry" />
        </mxCell>
        <mxCell id="Dds-Nu4U3g00oNfWe3dt-31" value="&lt;b&gt;&lt;i&gt;REDIS IN FUTURE&amp;nbsp;&lt;/i&gt;&lt;/b&gt;&lt;div&gt;&lt;b&gt;&lt;i&gt;FOR SUBSCRIBE&lt;/i&gt;&lt;/b&gt;&lt;/div&gt;&lt;div&gt;&lt;b&gt;&lt;i&gt;EXPIRY EVENT&lt;/i&gt;&lt;/b&gt;&lt;/div&gt;" style="text;html=1;align=center;verticalAlign=middle;resizable=0;points=[];autosize=1;strokeColor=none;fillColor=none;" vertex="1" parent="1">
          <mxGeometry x="-180" y="745" width="130" height="60" as="geometry" />
        </mxCell>
        <mxCell id="Dds-Nu4U3g00oNfWe3dt-35" value="&lt;b&gt;TOKEN VALIDATEION&lt;/b&gt;&lt;div&gt;&lt;b&gt;&amp;nbsp;AND LICENCE VALIDATION&lt;/b&gt;&lt;/div&gt;" style="text;html=1;align=center;verticalAlign=middle;resizable=0;points=[];autosize=1;strokeColor=none;fillColor=none;" vertex="1" parent="1">
          <mxGeometry x="-220" y="863" width="180" height="40" as="geometry" />
        </mxCell>
        <mxCell id="Dds-Nu4U3g00oNfWe3dt-41" value="END" style="ellipse;whiteSpace=wrap;html=1;" vertex="1" parent="1">
          <mxGeometry x="-30" y="1040" width="80" height="80" as="geometry" />
        </mxCell>
        <mxCell id="Dds-Nu4U3g00oNfWe3dt-42" value="SIGN IN BUT RESTRICTION ON ALL THE MODULES AND UPGRADE THE LICNCE ON BEHALF OF PLAN UPGRADATION" style="whiteSpace=wrap;html=1;rounded=0;" vertex="1" parent="1">
          <mxGeometry x="-320" y="900" width="230" height="60" as="geometry" />
        </mxCell>
      </root>
    </mxGraphModel>
  </diagram>
</mxfile>
